<svg xmlns="http://www.w3.org/2000/svg" width="792" viewBox="0 0 792 612" height="612" version="1.0"><defs><clipPath id="a"><path d="M 36.792969 240.25 L 162.792969 240.25 L 162.792969 365.5 L 36.792969 365.5 Z M 36.792969 240.25"/></clipPath><clipPath id="b"><path d="M 177.78125 240.25 L 309.03125 240.25 L 309.03125 371.5 L 177.78125 371.5 Z M 177.78125 240.25"/></clipPath><clipPath id="c"><path d="M 325.535156 241 L 453.035156 241 L 453.035156 373 L 325.535156 373 Z M 325.535156 241"/></clipPath><clipPath id="d"><path d="M 473.25 237.929688 L 603.75 237.929688 L 603.75 368.429688 L 473.25 368.429688 Z M 473.25 237.929688"/></clipPath><clipPath id="e"><path d="M 625.433594 237.929688 L 752.183594 237.929688 L 752.183594 364.679688 L 625.433594 364.679688 Z M 625.433594 237.929688"/></clipPath></defs><g clip-path="url(#a)"><path fill="#0D2649" d="M 162.785156 303.257812 C 162.785156 268.460938 134.582031 240.25 99.792969 240.25 C 65.003906 240.25 36.804688 268.460938 36.804688 303.257812 C 36.804688 334.707031 59.839844 360.773438 89.953125 365.5 L 89.953125 321.472656 L 73.957031 321.472656 L 73.957031 303.257812 L 89.953125 303.257812 L 89.953125 289.375 C 89.953125 273.585938 99.355469 264.863281 113.742188 264.863281 C 120.636719 264.863281 127.84375 266.09375 127.84375 266.09375 L 127.84375 281.597656 L 119.902344 281.597656 C 112.074219 281.597656 109.636719 286.457031 109.636719 291.4375 L 109.636719 303.257812 L 127.105469 303.257812 L 124.3125 321.472656 L 109.636719 321.472656 L 109.636719 365.5 C 139.75 360.773438 162.785156 334.707031 162.785156 303.257812"/></g><g clip-path="url(#b)"><path fill="#0D2649" d="M 309.03125 305.875 C 309.03125 342.132812 279.664062 371.5 243.40625 371.5 C 207.148438 371.5 177.78125 342.132812 177.78125 305.875 C 177.78125 269.617188 207.148438 240.25 243.40625 240.25 C 279.664062 240.25 309.03125 269.617188 309.03125 305.875 Z M 231.394531 340.492188 C 260.5 340.492188 276.414062 316.375 276.414062 295.476562 C 276.414062 294.785156 276.414062 294.097656 276.382812 293.441406 C 279.464844 291.210938 282.15625 288.421875 284.289062 285.238281 C 281.46875 286.484375 278.414062 287.335938 275.199219 287.730469 C 278.480469 285.761719 280.976562 282.679688 282.15625 278.96875 C 279.105469 280.773438 275.726562 282.085938 272.117188 282.808594 C 269.226562 279.726562 265.125 277.820312 260.566406 277.820312 C 251.835938 277.820312 244.75 284.910156 244.75 293.636719 C 244.75 294.882812 244.882812 296.097656 245.175781 297.246094 C 232.019531 296.589844 220.371094 290.289062 212.5625 280.710938 C 211.214844 283.039062 210.429688 285.761719 210.429688 288.648438 C 210.429688 294.128906 213.21875 298.984375 217.484375 301.808594 C 214.890625 301.742188 212.460938 301.019531 210.328125 299.839844 C 210.328125 299.90625 210.328125 299.96875 210.328125 300.035156 C 210.328125 307.714844 215.777344 314.078125 223.027344 315.554688 C 221.714844 315.917969 220.304688 316.113281 218.859375 316.113281 C 217.84375 316.113281 216.859375 316.015625 215.875 315.820312 C 217.875 322.117188 223.71875 326.679688 230.640625 326.8125 C 225.226562 331.042969 218.402344 333.570312 210.984375 333.570312 C 209.707031 333.570312 208.460938 333.503906 207.210938 333.339844 C 214.136719 337.867188 222.46875 340.492188 231.394531 340.492188"/></g><g clip-path="url(#c)"><path fill="#0D2649" d="M 389.285156 241.519531 C 354.132812 241.519531 325.535156 268.613281 325.535156 301.914062 C 325.535156 318.09375 332.46875 333.628906 344.660156 344.96875 L 344.660156 372.597656 L 370.667969 359.636719 C 376.78125 361.410156 383.035156 362.3125 389.285156 362.3125 C 424.4375 362.3125 453.035156 335.214844 453.035156 301.914062 C 453.035156 268.613281 424.4375 241.519531 389.285156 241.519531 Z M 396.722656 320.460938 L 378.128906 305.628906 L 344.660156 320.460938 L 381.84375 283.375 L 400.441406 298.207031 L 433.910156 283.371094 Z M 396.722656 320.460938"/></g><g clip-path="url(#d)"><path fill="#0D2649" d="M 538.5 368.429688 C 574.539062 368.429688 603.75 339.214844 603.75 303.179688 C 603.75 267.140625 574.539062 237.929688 538.5 237.929688 C 502.464844 237.929688 473.25 267.140625 473.25 303.179688 C 473.25 339.214844 502.464844 368.429688 538.5 368.429688 Z M 573.21875 277.617188 L 561.335938 330.238281 C 561.269531 330.527344 561.167969 330.800781 561.035156 331.054688 C 560.953125 331.210938 560.859375 331.363281 560.753906 331.507812 C 560.351562 332.050781 559.789062 332.472656 559.128906 332.703125 C 558.015625 333.085938 556.785156 332.863281 555.871094 332.121094 L 540.34375 319.414062 L 533.828125 331.140625 C 533.164062 332.339844 531.839844 333.019531 530.472656 332.863281 C 529.109375 332.707031 527.972656 331.746094 527.597656 330.425781 L 521.375 308.648438 L 506.429688 305.660156 C 504.960938 305.367188 503.855469 304.140625 503.714844 302.648438 C 503.707031 302.554688 503.703125 302.460938 503.699219 302.371094 C 503.699219 302.261719 503.703125 302.15625 503.710938 302.050781 C 503.816406 300.792969 504.617188 299.671875 505.820312 299.183594 L 568.609375 273.730469 C 568.652344 273.710938 568.699219 273.695312 568.746094 273.675781 C 569.253906 273.492188 569.785156 273.433594 570.296875 273.496094 C 570.671875 273.539062 571.042969 273.644531 571.394531 273.816406 C 571.429688 273.832031 571.464844 273.851562 571.5 273.871094 C 571.964844 274.117188 572.378906 274.476562 572.691406 274.925781 C 572.855469 275.160156 572.988281 275.414062 573.085938 275.679688 C 573.207031 275.996094 573.273438 276.324219 573.292969 276.652344 C 573.3125 276.96875 573.289062 277.292969 573.21875 277.613281 Z M 554.085938 290.839844 L 536.722656 312.0625 C 536.578125 312.242188 536.453125 312.429688 536.347656 312.621094 L 531.875 320.679688 L 528.035156 307.242188 Z M 554.085938 290.839844" fill-rule="evenodd"/></g><g clip-path="url(#e)"><path fill="#0D2649" d="M 688.78125 249.355469 C 705.695312 249.355469 707.695312 249.414062 714.386719 249.71875 C 720.554688 249.996094 723.914062 251.023438 726.164062 251.910156 C 729.105469 253.050781 731.21875 254.4375 733.441406 256.660156 C 735.660156 258.882812 737.023438 260.992188 738.1875 263.9375 C 739.050781 266.160156 740.078125 269.519531 740.382812 275.710938 C 740.6875 282.40625 740.742188 284.40625 740.742188 301.316406 C 740.742188 318.230469 740.6875 320.230469 740.382812 326.921875 C 740.105469 333.089844 739.078125 336.449219 738.1875 338.699219 C 737.050781 341.640625 735.660156 343.753906 733.441406 345.976562 C 731.21875 348.195312 729.105469 349.558594 726.164062 350.722656 C 723.941406 351.585938 720.582031 352.613281 714.386719 352.917969 C 707.695312 353.222656 705.695312 353.277344 688.78125 353.277344 C 671.871094 353.277344 669.871094 353.222656 663.175781 352.917969 C 657.011719 352.640625 653.652344 351.613281 651.402344 350.722656 C 648.457031 349.585938 646.347656 348.195312 644.125 345.976562 C 641.902344 343.753906 640.542969 341.640625 639.375 338.699219 C 638.515625 336.476562 637.488281 333.117188 637.183594 326.921875 C 636.878906 320.230469 636.820312 318.230469 636.820312 301.316406 C 636.820312 284.40625 636.878906 282.40625 637.183594 275.710938 C 637.460938 269.546875 638.488281 266.1875 639.375 263.9375 C 640.515625 260.992188 641.902344 258.882812 644.125 256.660156 C 646.347656 254.4375 648.457031 253.078125 651.402344 251.910156 C 653.625 251.050781 656.984375 250.023438 663.175781 249.71875 C 669.871094 249.414062 671.871094 249.355469 688.78125 249.355469 M 688.78125 237.941406 C 671.5625 237.941406 669.425781 238.027344 662.648438 238.332031 C 655.902344 238.636719 651.289062 239.71875 647.265625 241.277344 C 643.097656 242.886719 639.570312 245.050781 636.042969 248.578125 C 632.546875 252.105469 630.378906 255.632812 628.769531 259.800781 C 627.210938 263.824219 626.128906 268.4375 625.824219 275.183594 C 625.519531 281.933594 625.433594 284.097656 625.433594 301.289062 C 625.433594 318.507812 625.519531 320.648438 625.824219 327.421875 C 626.128906 334.171875 627.210938 338.78125 628.769531 342.808594 C 630.378906 346.972656 632.546875 350.5 636.070312 354.027344 C 639.597656 357.554688 643.125 359.722656 647.292969 361.332031 C 651.320312 362.886719 655.929688 363.972656 662.675781 364.277344 C 669.425781 364.582031 671.59375 364.664062 688.808594 364.664062 C 706.027344 364.664062 708.167969 364.582031 714.945312 364.277344 C 721.691406 363.972656 726.300781 362.886719 730.328125 361.332031 C 734.496094 359.722656 738.023438 357.554688 741.550781 354.027344 C 745.074219 350.5 747.242188 346.972656 748.851562 342.808594 C 750.40625 338.78125 751.492188 334.171875 751.796875 327.421875 C 752.101562 320.675781 752.183594 318.507812 752.183594 301.289062 C 752.183594 284.070312 752.101562 281.933594 751.796875 275.15625 C 751.492188 268.410156 750.40625 263.796875 748.851562 259.773438 C 747.242188 255.605469 745.074219 252.078125 741.550781 248.550781 C 738.023438 245.023438 734.496094 242.859375 730.328125 241.246094 C 726.300781 239.691406 721.691406 238.609375 714.945312 238.304688 C 708.167969 238.027344 706 237.941406 688.78125 237.941406"/></g><path fill="#0D2649" d="M 688.78125 268.769531 C 670.8125 268.769531 656.261719 283.320312 656.261719 301.289062 C 656.261719 319.257812 670.84375 333.839844 688.808594 333.839844 C 706.777344 333.839844 721.359375 319.285156 721.359375 301.289062 C 721.332031 283.320312 706.75 268.769531 688.78125 268.769531 M 688.78125 322.425781 C 677.117188 322.425781 667.675781 312.980469 667.675781 301.316406 C 667.675781 289.652344 677.117188 280.210938 688.78125 280.210938 C 700.445312 280.210938 709.890625 289.652344 709.890625 301.316406 C 709.917969 312.953125 700.445312 322.425781 688.78125 322.425781"/><path fill="#0D2649" d="M 730.21875 267.492188 C 730.21875 271.6875 726.800781 275.101562 722.609375 275.101562 C 718.414062 275.101562 715 271.6875 715 267.492188 C 715 263.296875 718.414062 259.882812 722.609375 259.882812 C 726.800781 259.882812 730.21875 263.269531 730.21875 267.492188"/></svg>