<svg xmlns="http://www.w3.org/2000/svg" width="792" viewBox="0 0 792 288" height="288" version="1.0"><defs><clipPath id="a"><path d="M 20.074219 75.730469 L 151.324219 75.730469 L 151.324219 206.230469 L 20.074219 206.230469 Z M 20.074219 75.730469"/></clipPath><clipPath id="b"><path d="M 166.464844 75.730469 L 302.964844 75.730469 L 302.964844 212.230469 L 166.464844 212.230469 Z M 166.464844 75.730469"/></clipPath><clipPath id="c"><path d="M 319.882812 77 L 451.882812 77 L 451.882812 214 L 319.882812 214 Z M 319.882812 77"/></clipPath><clipPath id="d"><path d="M 473.261719 73.320312 L 608.261719 73.320312 L 608.261719 208.320312 L 473.261719 208.320312 Z M 473.261719 73.320312"/></clipPath><clipPath id="e"><path d="M 631.277344 73.320312 L 763.277344 73.320312 L 763.277344 205.320312 L 631.277344 205.320312 Z M 631.277344 73.320312"/></clipPath></defs><g clip-path="url(#a)"><path fill="#0D2649" d="M 151.308594 141.378906 C 151.308594 105.121094 121.933594 75.730469 85.699219 75.730469 C 49.460938 75.730469 20.085938 105.121094 20.085938 141.378906 C 20.085938 174.144531 44.078125 201.304688 75.445312 206.230469 L 75.445312 160.355469 L 58.785156 160.355469 L 58.785156 141.378906 L 75.445312 141.378906 L 75.445312 126.914062 C 75.445312 110.460938 85.242188 101.375 100.230469 101.375 C 107.40625 101.375 114.917969 102.65625 114.917969 102.65625 L 114.917969 118.8125 L 106.640625 118.8125 C 98.492188 118.8125 95.949219 123.871094 95.949219 129.0625 L 95.949219 141.378906 L 114.148438 141.378906 L 111.238281 160.355469 L 95.949219 160.355469 L 95.949219 206.230469 C 127.316406 201.304688 151.308594 174.144531 151.308594 141.378906"/></g><g clip-path="url(#b)"><path fill="#0D2649" d="M 302.964844 143.980469 C 302.964844 181.6875 272.421875 212.230469 234.714844 212.230469 C 197.003906 212.230469 166.464844 181.6875 166.464844 143.980469 C 166.464844 106.273438 197.003906 75.730469 234.714844 75.730469 C 272.421875 75.730469 302.964844 106.273438 302.964844 143.980469 Z M 222.222656 179.984375 C 252.492188 179.984375 269.042969 154.902344 269.042969 133.164062 C 269.042969 132.445312 269.042969 131.730469 269.007812 131.046875 C 272.21875 128.726562 275.015625 125.828125 277.234375 122.515625 C 274.300781 123.8125 271.125 124.699219 267.78125 125.109375 C 271.195312 123.0625 273.785156 119.855469 275.015625 116 C 271.84375 117.875 268.328125 119.242188 264.574219 119.992188 C 261.570312 116.785156 257.304688 114.804688 252.5625 114.804688 C 243.484375 114.804688 236.113281 122.175781 236.113281 131.253906 C 236.113281 132.550781 236.25 133.8125 236.558594 135.007812 C 222.871094 134.324219 210.757812 127.773438 202.636719 117.808594 C 201.238281 120.230469 200.417969 123.0625 200.417969 126.066406 C 200.417969 131.765625 203.320312 136.816406 207.753906 139.75 C 205.058594 139.679688 202.535156 138.929688 200.316406 137.703125 C 200.316406 137.769531 200.316406 137.839844 200.316406 137.90625 C 200.316406 145.890625 205.980469 152.511719 213.523438 154.046875 C 212.15625 154.421875 210.691406 154.628906 209.1875 154.628906 C 208.128906 154.628906 207.105469 154.527344 206.082031 154.320312 C 208.164062 160.875 214.238281 165.617188 221.4375 165.753906 C 215.808594 170.15625 208.710938 172.78125 201 172.78125 C 199.667969 172.78125 198.371094 172.714844 197.074219 172.542969 C 204.273438 177.253906 212.941406 179.984375 222.222656 179.984375"/></g><g clip-path="url(#c)"><path fill="#0D2649" d="M 385.882812 77.042969 C 349.488281 77.042969 319.882812 105.207031 319.882812 139.820312 C 319.882812 156.636719 327.0625 172.78125 339.679688 184.570312 L 339.679688 213.289062 L 366.609375 199.8125 C 372.9375 201.65625 379.414062 202.597656 385.882812 202.597656 C 422.273438 202.597656 451.882812 174.433594 451.882812 139.820312 C 451.882812 105.207031 422.273438 77.042969 385.882812 77.042969 Z M 393.582031 159.09375 L 374.332031 143.679688 L 339.679688 159.09375 L 378.179688 120.550781 L 397.429688 135.96875 L 432.082031 120.542969 Z M 393.582031 159.09375"/></g><g clip-path="url(#d)"><path fill="#0D2649" d="M 540.761719 208.320312 C 578.039062 208.320312 608.261719 178.097656 608.261719 140.820312 C 608.261719 103.539062 578.039062 73.320312 540.761719 73.320312 C 503.480469 73.320312 473.261719 103.539062 473.261719 140.820312 C 473.261719 178.097656 503.480469 208.320312 540.761719 208.320312 Z M 576.671875 114.375 L 564.382812 168.8125 C 564.3125 169.109375 564.210938 169.394531 564.074219 169.65625 C 563.988281 169.820312 563.890625 169.976562 563.78125 170.125 C 563.367188 170.6875 562.78125 171.125 562.097656 171.359375 C 560.949219 171.757812 559.671875 171.527344 558.730469 170.757812 L 542.667969 157.613281 L 535.929688 169.746094 C 535.238281 170.988281 533.867188 171.691406 532.457031 171.527344 C 531.046875 171.367188 529.871094 170.371094 529.480469 169.003906 L 523.042969 146.480469 L 507.582031 143.386719 C 506.0625 143.082031 504.921875 141.816406 504.777344 140.273438 C 504.765625 140.175781 504.761719 140.078125 504.761719 139.984375 C 504.757812 139.871094 504.761719 139.761719 504.773438 139.652344 C 504.878906 138.351562 505.710938 137.191406 506.953125 136.6875 L 571.90625 110.355469 C 571.953125 110.335938 572 110.316406 572.046875 110.300781 C 572.574219 110.109375 573.125 110.050781 573.65625 110.113281 C 574.039062 110.15625 574.421875 110.265625 574.789062 110.445312 C 574.824219 110.460938 574.863281 110.480469 574.898438 110.5 C 575.378906 110.757812 575.804688 111.125 576.128906 111.59375 C 576.296875 111.835938 576.433594 112.097656 576.539062 112.371094 C 576.660156 112.699219 576.734375 113.039062 576.753906 113.378906 C 576.773438 113.707031 576.75 114.042969 576.675781 114.375 Z M 556.886719 128.054688 L 538.921875 150.011719 C 538.769531 150.195312 538.640625 150.386719 538.535156 150.589844 L 533.90625 158.921875 L 529.933594 145.023438 Z M 556.886719 128.054688" fill-rule="evenodd"/></g><g clip-path="url(#e)"><path fill="#0D2649" d="M 697.25 85.222656 C 714.863281 85.222656 716.945312 85.277344 723.914062 85.597656 C 730.335938 85.886719 733.835938 86.957031 736.179688 87.882812 C 739.246094 89.066406 741.441406 90.515625 743.757812 92.828125 C 746.070312 95.140625 747.488281 97.339844 748.703125 100.40625 C 749.597656 102.71875 750.667969 106.21875 750.988281 112.667969 C 751.304688 119.636719 751.363281 121.722656 751.363281 139.335938 C 751.363281 156.949219 751.304688 159.03125 750.988281 166 C 750.699219 172.421875 749.628906 175.921875 748.703125 178.261719 C 747.515625 181.328125 746.070312 183.527344 743.757812 185.839844 C 741.441406 188.15625 739.246094 189.570312 736.179688 190.785156 C 733.863281 191.683594 730.363281 192.753906 723.914062 193.070312 C 716.945312 193.390625 714.863281 193.449219 697.25 193.449219 C 679.636719 193.449219 677.554688 193.390625 670.582031 193.070312 C 664.164062 192.78125 660.664062 191.710938 658.320312 190.785156 C 655.253906 189.601562 653.058594 188.15625 650.742188 185.839844 C 648.429688 183.527344 647.011719 181.328125 645.796875 178.261719 C 644.902344 175.949219 643.832031 172.449219 643.511719 166 C 643.195312 159.03125 643.136719 156.949219 643.136719 139.335938 C 643.136719 121.722656 643.195312 119.636719 643.511719 112.667969 C 643.800781 106.246094 644.871094 102.746094 645.796875 100.40625 C 646.984375 97.339844 648.429688 95.140625 650.742188 92.828125 C 653.058594 90.515625 655.253906 89.097656 658.320312 87.882812 C 660.632812 86.984375 664.132812 85.914062 670.582031 85.597656 C 677.554688 85.277344 679.636719 85.222656 697.25 85.222656 M 697.25 73.335938 C 679.316406 73.335938 677.089844 73.421875 670.035156 73.738281 C 663.007812 74.058594 658.203125 75.183594 654.011719 76.804688 C 649.671875 78.480469 646 80.738281 642.328125 84.410156 C 638.683594 88.085938 636.425781 91.757812 634.75 96.097656 C 633.128906 100.289062 632 105.089844 631.683594 112.117188 C 631.363281 119.148438 631.277344 121.402344 631.277344 139.304688 C 631.277344 157.238281 631.363281 159.464844 631.683594 166.519531 C 632 173.550781 633.128906 178.351562 634.75 182.542969 C 636.425781 186.882812 638.683594 190.554688 642.355469 194.226562 C 646.027344 197.902344 649.703125 200.15625 654.039062 201.835938 C 658.234375 203.453125 663.035156 204.582031 670.0625 204.902344 C 677.089844 205.21875 679.347656 205.304688 697.277344 205.304688 C 715.210938 205.304688 717.4375 205.21875 724.492188 204.902344 C 731.523438 204.582031 736.324219 203.453125 740.515625 201.835938 C 744.855469 200.15625 748.527344 197.902344 752.203125 194.226562 C 755.875 190.554688 758.128906 186.882812 759.808594 182.542969 C 761.425781 178.351562 762.554688 173.550781 762.875 166.519531 C 763.191406 159.492188 763.277344 157.238281 763.277344 139.304688 C 763.277344 121.375 763.191406 119.148438 762.875 112.089844 C 762.554688 105.0625 761.425781 100.261719 759.808594 96.066406 C 758.128906 91.730469 755.875 88.054688 752.203125 84.382812 C 748.527344 80.710938 744.855469 78.453125 740.515625 76.777344 C 736.324219 75.15625 731.523438 74.027344 724.492188 73.710938 C 717.4375 73.421875 715.179688 73.335938 697.25 73.335938"/></g><path fill="#0D2649" d="M 697.25 105.4375 C 678.535156 105.4375 663.382812 120.59375 663.382812 139.304688 C 663.382812 158.019531 678.566406 173.203125 697.277344 173.203125 C 715.992188 173.203125 731.175781 158.046875 731.175781 139.304688 C 731.144531 120.59375 715.960938 105.4375 697.25 105.4375 M 697.25 161.316406 C 685.101562 161.316406 675.269531 151.480469 675.269531 139.335938 C 675.269531 127.1875 685.101562 117.355469 697.25 117.355469 C 709.398438 117.355469 719.230469 127.1875 719.230469 139.335938 C 719.257812 151.453125 709.398438 161.316406 697.25 161.316406"/><path fill="#0D2649" d="M 740.402344 104.105469 C 740.402344 108.472656 736.84375 112.03125 732.476562 112.03125 C 728.109375 112.03125 724.550781 108.472656 724.550781 104.105469 C 724.550781 99.738281 728.109375 96.183594 732.476562 96.183594 C 736.84375 96.183594 740.402344 99.710938 740.402344 104.105469"/></svg>