<svg xmlns="http://www.w3.org/2000/svg" width="792" viewBox="0 0 792 216" height="216" version="1.0"><defs><clipPath id="a"><path d="M 3.894531 47.769531 L 142.644531 47.769531 L 142.644531 185.019531 L 3.894531 185.019531 Z M 3.894531 47.769531"/></clipPath><clipPath id="b"><path d="M 158.378906 47.769531 L 302.378906 47.769531 L 302.378906 191.769531 L 158.378906 191.769531 Z M 158.378906 47.769531"/></clipPath><clipPath id="c"><path d="M 320.277344 49 L 459.777344 49 L 459.777344 194 L 320.277344 194 Z M 320.277344 49"/></clipPath><clipPath id="d"><path d="M 482.136719 45.222656 L 624.636719 45.222656 L 624.636719 187.722656 L 482.136719 187.722656 Z M 482.136719 45.222656"/></clipPath><clipPath id="e"><path d="M 648.890625 45.222656 L 788.390625 45.222656 L 788.390625 184.722656 L 648.890625 184.722656 Z M 648.890625 45.222656"/></clipPath></defs><path fill="#FFF" d="M-79.2 -21.6H871.1999999999999V237.6H-79.2z"/><path fill="#FFF" d="M-79.2 -21.6H871.1999999999999V237.6H-79.2z"/><path fill="#FFF" d="M-79.2 -21.6H871.1999999999999V237.6H-79.2z"/><g clip-path="url(#a)"><path fill="#0D2649" d="M 142.628906 116.8125 C 142.628906 78.679688 111.574219 47.769531 73.269531 47.769531 C 34.960938 47.769531 3.90625 78.679688 3.90625 116.8125 C 3.90625 151.273438 29.273438 179.835938 62.429688 185.015625 L 62.429688 136.769531 L 44.820312 136.769531 L 44.820312 116.8125 L 62.429688 116.8125 L 62.429688 101.601562 C 62.429688 84.296875 72.785156 74.738281 88.628906 74.738281 C 96.21875 74.738281 104.15625 76.085938 104.15625 76.085938 L 104.15625 93.078125 L 95.410156 93.078125 C 86.792969 93.078125 84.105469 98.402344 84.105469 103.859375 L 84.105469 116.8125 L 103.34375 116.8125 L 100.269531 136.769531 L 84.105469 136.769531 L 84.105469 185.015625 C 117.265625 179.835938 142.628906 151.273438 142.628906 116.8125"/></g><g clip-path="url(#b)"><path fill="#0D2649" d="M 302.378906 119.769531 C 302.378906 159.550781 270.15625 191.769531 230.378906 191.769531 C 190.597656 191.769531 158.378906 159.550781 158.378906 119.769531 C 158.378906 79.988281 190.597656 47.769531 230.378906 47.769531 C 270.15625 47.769531 302.378906 79.988281 302.378906 119.769531 Z M 217.203125 157.75 C 249.132812 157.75 266.59375 131.289062 266.59375 108.355469 C 266.59375 107.601562 266.59375 106.84375 266.558594 106.125 C 269.941406 103.675781 272.894531 100.617188 275.234375 97.125 C 272.136719 98.492188 268.789062 99.429688 265.261719 99.859375 C 268.863281 97.699219 271.597656 94.316406 272.894531 90.25 C 269.546875 92.230469 265.839844 93.667969 261.878906 94.460938 C 258.710938 91.078125 254.210938 88.988281 249.207031 88.988281 C 239.628906 88.988281 231.855469 96.765625 231.855469 106.339844 C 231.855469 107.707031 231.996094 109.039062 232.320312 110.300781 C 217.886719 109.582031 205.105469 102.667969 196.539062 92.15625 C 195.0625 94.710938 194.199219 97.699219 194.199219 100.867188 C 194.199219 106.882812 197.257812 112.207031 201.9375 115.304688 C 199.09375 115.234375 196.429688 114.441406 194.089844 113.144531 C 194.089844 113.21875 194.089844 113.289062 194.089844 113.359375 C 194.089844 121.785156 200.066406 128.769531 208.023438 130.390625 C 206.582031 130.785156 205.035156 131 203.449219 131 C 202.332031 131 201.253906 130.894531 200.175781 130.675781 C 202.371094 137.589844 208.777344 142.59375 216.375 142.738281 C 210.433594 147.382812 202.945312 150.152344 194.808594 150.152344 C 193.40625 150.152344 192.039062 150.082031 190.667969 149.902344 C 198.265625 154.867188 207.410156 157.75 217.203125 157.75"/></g><g clip-path="url(#c)"><path fill="#0D2649" d="M 390.027344 49.15625 C 351.566406 49.15625 320.277344 78.996094 320.277344 115.667969 C 320.277344 133.484375 327.867188 150.589844 341.203125 163.078125 L 341.203125 193.503906 L 369.660156 179.230469 C 376.351562 181.183594 383.191406 182.179688 390.027344 182.179688 C 428.488281 182.179688 459.777344 152.339844 459.777344 115.667969 C 459.777344 78.996094 428.488281 49.15625 390.027344 49.15625 Z M 398.167969 136.089844 L 377.820312 119.757812 L 341.203125 136.089844 L 381.886719 95.253906 L 402.234375 111.585938 L 438.851562 95.246094 Z M 398.167969 136.089844"/></g><g clip-path="url(#d)"><path fill="#0D2649" d="M 553.386719 187.722656 C 592.738281 187.722656 624.636719 155.824219 624.636719 116.472656 C 624.636719 77.125 592.738281 45.222656 553.386719 45.222656 C 514.035156 45.222656 482.136719 77.125 482.136719 116.472656 C 482.136719 155.824219 514.035156 187.722656 553.386719 187.722656 Z M 591.296875 88.558594 L 578.320312 146.023438 C 578.25 146.335938 578.140625 146.632812 577.996094 146.914062 C 577.90625 147.085938 577.800781 147.25 577.6875 147.40625 C 577.246094 148.003906 576.632812 148.464844 575.910156 148.710938 C 574.695312 149.128906 573.351562 148.890625 572.355469 148.074219 L 555.398438 134.203125 L 548.285156 147.007812 C 547.558594 148.316406 546.113281 149.058594 544.621094 148.890625 C 543.132812 148.71875 541.890625 147.667969 541.480469 146.226562 L 534.6875 122.445312 L 518.367188 119.183594 C 516.761719 118.863281 515.558594 117.527344 515.402344 115.894531 C 515.394531 115.792969 515.386719 115.691406 515.386719 115.589844 C 515.386719 115.472656 515.390625 115.359375 515.398438 115.242188 C 515.511719 113.867188 516.386719 112.644531 517.703125 112.113281 L 586.261719 84.316406 C 586.3125 84.296875 586.359375 84.277344 586.410156 84.257812 C 586.96875 84.054688 587.550781 83.996094 588.109375 84.058594 C 588.515625 84.105469 588.921875 84.222656 589.304688 84.410156 C 589.34375 84.429688 589.382812 84.449219 589.421875 84.46875 C 589.929688 84.742188 590.378906 85.132812 590.722656 85.625 C 590.898438 85.878906 591.042969 86.15625 591.152344 86.445312 C 591.28125 86.792969 591.355469 87.152344 591.378906 87.507812 C 591.402344 87.855469 591.375 88.207031 591.296875 88.558594 Z M 570.40625 103 L 551.445312 126.175781 C 551.285156 126.367188 551.152344 126.574219 551.039062 126.785156 L 546.152344 135.582031 L 541.960938 120.910156 Z M 570.40625 103" fill-rule="evenodd"/></g><g clip-path="url(#e)"><path fill="#0D2649" d="M 718.609375 57.800781 C 737.226562 57.800781 739.425781 57.863281 746.792969 58.199219 C 753.578125 58.503906 757.277344 59.636719 759.75 60.613281 C 762.992188 61.867188 765.3125 63.394531 767.757812 65.839844 C 770.203125 68.285156 771.703125 70.609375 772.984375 73.847656 C 773.933594 76.292969 775.066406 79.992188 775.402344 86.808594 C 775.738281 94.175781 775.796875 96.375 775.796875 114.988281 C 775.796875 133.605469 775.738281 135.804688 775.402344 143.171875 C 775.09375 149.957031 773.964844 153.65625 772.984375 156.128906 C 771.734375 159.371094 770.203125 161.691406 767.757812 164.136719 C 765.3125 166.582031 762.992188 168.082031 759.75 169.363281 C 757.304688 170.3125 753.609375 171.445312 746.792969 171.78125 C 739.425781 172.117188 737.226562 172.175781 718.609375 172.175781 C 699.996094 172.175781 697.796875 172.117188 690.429688 171.78125 C 683.644531 171.472656 679.945312 170.34375 677.46875 169.363281 C 674.230469 168.113281 671.90625 166.582031 669.460938 164.136719 C 667.015625 161.691406 665.519531 159.371094 664.234375 156.128906 C 663.289062 153.683594 662.15625 149.988281 661.820312 143.171875 C 661.484375 135.804688 661.421875 133.605469 661.421875 114.988281 C 661.421875 96.375 661.484375 94.175781 661.820312 86.808594 C 662.125 80.023438 663.257812 76.324219 664.234375 73.847656 C 665.488281 70.609375 667.015625 68.285156 669.460938 65.839844 C 671.90625 63.394531 674.230469 61.898438 677.46875 60.613281 C 679.914062 59.667969 683.613281 58.535156 690.429688 58.199219 C 697.796875 57.863281 699.996094 57.800781 718.609375 57.800781 M 718.609375 45.238281 C 699.660156 45.238281 697.308594 45.332031 689.847656 45.667969 C 682.421875 46.003906 677.347656 47.195312 672.914062 48.90625 C 668.332031 50.679688 664.449219 53.0625 660.566406 56.945312 C 656.714844 60.828125 654.332031 64.710938 652.558594 69.292969 C 650.847656 73.726562 649.65625 78.800781 649.320312 86.226562 C 648.984375 93.65625 648.890625 96.039062 648.890625 114.957031 C 648.890625 133.910156 648.984375 136.261719 649.320312 143.722656 C 649.65625 151.148438 650.847656 156.222656 652.558594 160.652344 C 654.332031 165.238281 656.714844 169.121094 660.597656 173.003906 C 664.480469 176.882812 668.359375 179.269531 672.945312 181.039062 C 677.378906 182.753906 682.453125 183.945312 689.878906 184.28125 C 697.308594 184.617188 699.691406 184.707031 718.640625 184.707031 C 737.589844 184.707031 739.945312 184.617188 747.402344 184.28125 C 754.832031 183.945312 759.90625 182.753906 764.335938 181.039062 C 768.921875 179.269531 772.804688 176.882812 776.683594 173.003906 C 780.566406 169.121094 782.949219 165.238281 784.722656 160.652344 C 786.433594 156.222656 787.628906 151.148438 787.964844 143.722656 C 788.300781 136.292969 788.390625 133.910156 788.390625 114.957031 C 788.390625 96.007812 788.300781 93.65625 787.964844 86.195312 C 787.628906 78.769531 786.433594 73.695312 784.722656 69.265625 C 782.949219 64.679688 780.566406 60.796875 776.683594 56.914062 C 772.804688 53.035156 768.921875 50.648438 764.335938 48.875 C 759.90625 47.164062 754.832031 45.972656 747.402344 45.636719 C 739.945312 45.332031 737.5625 45.238281 718.609375 45.238281"/></g><path fill="#0D2649" d="M 718.609375 79.167969 C 698.835938 79.167969 682.820312 95.183594 682.820312 114.957031 C 682.820312 134.734375 698.867188 150.78125 718.640625 150.78125 C 738.417969 150.78125 754.464844 134.765625 754.464844 114.957031 C 754.433594 95.183594 738.386719 79.167969 718.609375 79.167969 M 718.609375 138.21875 C 705.773438 138.21875 695.382812 127.828125 695.382812 114.988281 C 695.382812 102.152344 705.773438 91.757812 718.609375 91.757812 C 731.449219 91.757812 741.839844 102.152344 741.839844 114.988281 C 741.871094 127.796875 731.449219 138.21875 718.609375 138.21875"/><path fill="#0D2649" d="M 764.214844 77.761719 C 764.214844 82.375 760.453125 86.136719 755.839844 86.136719 C 751.222656 86.136719 747.464844 82.375 747.464844 77.761719 C 747.464844 73.144531 751.222656 69.386719 755.839844 69.386719 C 760.453125 69.386719 764.214844 73.113281 764.214844 77.761719"/></svg>